# xmcd CD database file
#
# Track frame offsets:
#	150
#	12012
#	23255
#	34115
#	44525
#	55732
#	65322
#	75060
#	86857
#	102065
#	112080
#	120437
#
# Disc length: 1761 seconds
#
# Revision: 3
# Processed by: cddbd v1.5.2PL0 Copyright (c) Steve Scherf et al.
# Submitted via: CDex 1.70beta2
#
DISCID=8006df0c
DTITLE=Tom Jobim - The Wonderful World of Jobim
DYEAR=1965
DGENRE=Jazz
TTITLE0=She's A Carioca
TTITLE1=Aqua De Beber
TTITLE2=Surfboard
TTITLE3=Useless Landscape
TTITLE4=So Tinha De Ser Com Voce
TTITLE5=A Felicidade
TTITLE6=Bonita
TTITLE7=Favela
TTITLE8=Valsa De Porto Das Caixas
TTITLE9=Samba Do Aviao
TTITLE10=Por Toda A Mimha Vida
TTITLE11=Dindi
EXTD=YEAR: 1965
EXTT0=
EXTT1=
EXTT2=
EXTT3=
EXTT4=
EXTT5=
EXTT6=
EXTT7=
EXTT8=
EXTT9=
EXTT10=
EXTT11=
PLAYORDER=
